<svg xmlns="http://www.w3.org/2000/svg" viewBox="0 0 1920 1080"><g opacity=".15"><path d="M147.285 941.701q-46.938 0-67.678-32.747-19.648-31.656-19.648-79.683 0-52.396 19.648-124.44t51.304-151.728q32.748-79.683 70.95-155.005 38.206-76.41 76.411-138.634t69.862-99.337q32.747-37.114 51.304-37.114 12.008 0 19.649 14.19 7.64 13.1 12.007 32.748 4.367 18.557 4.367 33.84 0 29.472-15.283 77.505-14.19 46.938-41.48 105.88-26.198 57.852-63.312 117.892-36.022 58.945-79.682 113.524-42.572 54.58-90.605 93.877-6.55 29.472-10.916 57.85-3.274 27.29-3.274 52.397 0 42.572 12.007 63.312t36.022 20.74q29.473 0 57.851-26.198 29.473-26.198 54.58-65.495 26.198-40.389 44.755-82.96l16.373 8.732q-43.663 92.782-94.97 147.367Q206.222 941.7 147.28 941.7zm7.641-266.346q38.206-38.206 74.228-87.327 36.022-50.213 66.584-103.703 31.656-53.488 55.67-103.704t37.114-89.51q13.1-40.388 13.1-62.217 0-10.916-3.275-14.19-2.183-3.275-4.367-3.275-8.732 0-30.564 28.38-20.74 27.29-49.121 74.229t-57.851 106.975-56.763 125.535q-26.198 65.495-44.755 128.807z"/><path d="M432.186 957q-66.584 0-100.426-37.113-32.747-36.022-32.747-89.51 0-49.121 24.014-103.703 25.107-54.58 65.495-102.61 41.48-48.029 90.605-77.505 49.121-30.564 97.148-30.564 25.106 0 45.846 13.099 21.832 13.099 21.832 53.488 0 41.48-25.106 78.594-24.015 36.022-64.407 64.4-39.297 28.381-87.326 46.938-46.938 17.466-93.877 21.832-2.183 10.916-3.274 20.74t-1.092 18.557q0 16.374 3.275 32.748 4.366 16.373 14.19 30.564 9.825 13.099 26.198 20.74 17.466 7.641 42.572 7.641 46.938 0 92.782-26.198 45.847-27.29 85.144-70.95t66.583-96.06l13.1 9.825q-29.473 65.495-75.317 113.525-44.755 48.03-98.243 74.227-52.396 27.29-106.975 27.29zm-53.488-183.385q29.473-9.825 66.584-28.382 37.114-19.648 70.95-45.846 34.93-26.198 56.762-57.851 22.924-31.656 22.924-66.584 0-12.007-4.367-18.557t-18.557-6.55q-26.198 0-55.67 20.74-29.473 19.65-56.763 52.397t-49.121 72.044-32.748 78.594z"/><path d="M866.585 937.346q-37.114 0-58.946-19.648-20.74-19.649-20.74-51.305 0-32.747 15.282-68.772t29.473-70.95q15.282-36.023 15.282-64.4 0-34.932-20.74-51.305-19.648-17.466-40.389-31.656-25.106 64.406-52.396 122.257t-44.754 87.327l-9.825-18.557q15.282-28.381 39.297-82.96 25.107-54.58 49.122-124.441-10.916-10.916-10.916-26.198 0-32.748 18.557-53.488t27.29-20.74q12.007 0 13.098 10.916 2.183 9.824 2.183 15.282t-6.55 21.832q-5.457 15.282-5.457 18.557 0 15.282 16.374 28.381 17.465 12.007 39.297 28.381 21.831 15.282 38.205 38.206 17.466 21.831 17.466 56.762 0 32.748-14.191 66.584-13.099 33.839-27.29 64.406-13.099 30.565-13.099 53.488 0 19.648 9.825 26.198t22.923 6.55q26.198 0 53.488-16.374 28.38-16.374 54.579-41.48t46.938-52.397q20.74-28.38 30.564-52.396l14.19 10.916q-20.74 45.847-56.762 90.604-36.022 43.664-80.777 72.045-43.663 28.381-90.604 28.381z"/><path d="M1410.2 930.757q-38.206 0-57.852-19.649-18.557-19.648-18.557-50.213 0-22.923 7.641-48.03 8.733-25.106 16.374-51.304 7.641-27.29 7.641-52.396 0-30.564-13.099-41.48-12.007-12.007-30.564-12.007-33.84 0-68.773 28.38-34.93 27.29-67.678 70.95-32.748 42.573-61.129 88.416t-50.213 81.872q-17.465 0-32.747-6.55-16.374-5.457-25.107-17.465 0-5.458 12.008-33.839 10.916-28.381 26.198-69.861t27.29-85.144 12.007-79.683q6.55-7.64 20.74-15.282t29.473-7.64q29.473 0 29.473 28.38 0 17.466-9.825 58.946-9.824 40.388-25.106 85.143 29.473-44.755 65.495-88.415 37.114-44.755 78.594-74.228t82.96-29.473q42.572 0 61.13 30.565 19.648 30.564 19.648 67.678 0 33.84-10.916 63.312-10.916 28.381-22.924 55.67-10.915 26.199-10.915 53.488 0 22.924 8.732 32.748 9.825 8.733 24.015 8.733 27.29 0 54.58-25.107 27.289-26.198 52.395-65.495 26.198-39.297 45.847-79.683l12.007 14.19q-22.923 53.488-51.304 94.972t-62.218 65.495-75.316 24.014z"/><path fill="red" d="M1775.894 437.395q-17.477 0-31.63-8.71-13.18-8.767-13.18-27.332 0-22.92 26.245-39.251 27.275-17.477 53.519-17.477 16.33 0 26.186 7.62t9.799 26.187q0 20.743-22.92 40.398-21.775 18.565-48.019 18.565z"/><path d="M1644.904 937.346q-42.572 0-63.312-27.29-20.74-26.197-20.74-64.405 0-25.107 8.733-63.312 9.824-38.206 25.106-79.683 15.283-42.572 34.931-79.683 20.74-37.114 43.663-60.04 22.924-24.015 44.755-24.015 9.825 0 16.374 6.55 7.641 5.458 7.641 17.465 0 13.1-17.465 42.572-16.374 29.473-39.297 67.678t-40.389 80.777q-16.374 41.48-16.374 79.683 0 39.297 13.1 52.396t40.388 13.1q37.114 0 78.594-37.115 42.572-37.114 89.51-129.901l9.824 10.916q-31.656 93.876-91.693 144.089-58.945 50.213-123.346 50.213z"/><path fill="red" d="M593.374 437.395q-17.477 0-31.63-8.71-13.18-8.767-13.18-27.332 0-22.92 26.244-39.251 27.275-17.477 53.52-17.477 16.33 0 26.186 7.62t9.798 26.187q0 20.743-22.92 40.398-21.775 18.565-48.018 18.565z"/></g></svg>